# xmcd
# 
# Track frame offsets:
#     150
#     15245
#     31232
#     45552
#     60842
#     76891
#     92588
#     107483
#     123622
#     138230
#     151172
#     166786
#     180529
# 
# Disc length: 2581
# 
# Revision: 1
# Processed by: cddbd v1.5.2PL0 Copyright (c) Steve Scherf et al.
# Submitted via: BonkEnc v1.0.6
# 
DISCID=870a130d
DTITLE=João Neto e Frederico - Acústico Ao Vivo
DYEAR=0
DGENRE=
TTITLE0=Só de Você
TTITLE1=Pra Dizer Adeus
TTITLE2=Filme de Amor
TTITLE3=Pega Fogo Cabaré
TTITLE4=Se Quiser
TTITLE5=Dona de Mim
TTITLE6=Bebo e Dou Trabalho
TTITLE7=Pura Magia
TTITLE8=É Tarde Demais
TTITLE9=Meu Anjo
TTITLE10=Vida de Universitário
TTITLE11=O Fora
TTITLE12=Por Favor Reza pra Nóis
EXTD=
EXTT0=
EXTT1=
EXTT2=
EXTT3=
EXTT4=
EXTT5=
EXTT6=
EXTT7=
EXTT8=
EXTT9=
EXTT10=
EXTT11=
EXTT12=
PLAYORDER=
